<svg width="434" height="2506" viewBox="0 0 434 2506" fill="none" xmlns="http://www.w3.org/2000/svg">
<path d="M62 183.741V1865.75H149V183.741C149 34.753 62 34.753 62 183.741Z" fill="#88DA68"/>
<path d="M320 111.741V1793.75H407V111.741C407 -37.247 320 -37.247 320 111.741Z" fill="#88DA68"/>
<ellipse cx="359.532" cy="2342.95" rx="69.8809" ry="59.7532" fill="#9A9A9A"/>
<rect x="322.06" y="1703.89" width="76.9702" height="433.464" fill="#38373A"/>
<rect x="330.162" y="1679.58" width="64.817" height="24.3064" fill="#7E7E7E"/>
<rect x="330.162" y="1736.3" width="64.817" height="20.2553" fill="#7E7E7E"/>
<path d="M339.498 1665.64C341.798 1625.15 315.179 1617.54 304.34 1622.87L304.049 2263.96L323.072 2296.5L400.04 2297.02L419.502 2264.74L417.587 1799.86C412.041 1781.19 415.436 1768.45 417.827 1764.42L418.821 1617.57C396.114 1620.66 390.909 1651.48 391.148 1665.99L390.901 1702.45C392.548 1708.54 394.22 1720.91 387.732 1721.67C381.245 1722.44 380.892 1734.79 381.526 1740.88L383.073 2110.55L364.734 2126.63L346.628 2108.28L349.118 1740.66C349.118 1740.66 348.222 1723.43 343.172 1721.37C339.132 1719.72 338.875 1707.84 339.251 1702.1L339.498 1665.64Z" fill="#9A9A9A"/>
<mask id="mask0_10_5277" style="mask-type:alpha" maskUnits="userSpaceOnUse" x="304" y="1617" width="116" height="681">
<path d="M339.498 1665.64C341.798 1625.15 315.18 1617.54 304.34 1622.87L304.049 2263.96L323.072 2296.5L400.04 2297.02L419.502 2264.74L417.587 1799.86C412.042 1781.19 415.436 1768.45 417.827 1764.42L418.822 1617.57C396.114 1620.66 390.909 1651.48 391.148 1665.99L390.901 1702.45C392.548 1708.54 394.22 1720.91 387.733 1721.67C381.246 1722.44 380.892 1734.79 381.526 1740.88L383.073 2110.55L364.734 2126.63L346.628 2108.28L349.118 1740.66C349.118 1740.66 348.222 1723.43 343.172 1721.37C339.132 1719.72 338.875 1707.84 339.251 1702.1L339.498 1665.64Z" fill="#9A9A9A"/>
</mask>
<g mask="url(#mask0_10_5277)">
<rect x="324.36" y="1605.04" width="36.4596" height="708.936" fill="#A9A9A7"/>
</g>
<circle cx="361.558" cy="2223.44" r="27.3447" fill="#38373A"/>
<rect x="283.574" y="2331.81" width="28.3574" height="28.3574" fill="#A9A9A7"/>
<rect x="324.085" y="2331.81" width="28.3574" height="28.3574" fill="#A9A9A7"/>
<rect x="364.596" y="2331.81" width="28.3574" height="28.3574" fill="#A9A9A7"/>
<rect x="405.106" y="2331.81" width="28.3574" height="28.3574" fill="#A9A9A7"/>
<ellipse cx="104.315" cy="2446.25" rx="69.8809" ry="59.7532" fill="#9A9A9A"/>
<rect x="30.3831" y="1965.18" width="30.383" height="120.519" fill="#C1BBAF"/>
<path d="M160.017 1813.27H174.196C178.67 1813.27 182.298 1816.9 182.298 1821.37V1829.47C182.298 1833.95 178.67 1837.57 174.196 1837.57H160.017V1813.27Z" fill="#B84C63"/>
<path d="M9.11489 1639.07H60.766V1681.61H9.11489C2.02614 1675.09 0 1660.34 0 1660.34C0 1660.34 1.01277 1645.03 9.11489 1639.07Z" fill="#9A9A9A"/>
<path d="M201.54 1681.61L149.889 1681.61L149.889 1639.07L201.54 1639.07C208.629 1645.59 210.655 1660.34 210.655 1660.34C210.655 1660.34 209.643 1675.65 201.54 1681.61Z" fill="#9A9A9A"/>
<path d="M122.545 1732.25H174.196V1774.78H122.545C115.456 1768.27 113.43 1753.51 113.43 1753.51C113.43 1753.51 114.442 1738.2 122.545 1732.25Z" fill="#9A9A9A"/>
<rect x="64.8169" y="1643.12" width="76.9702" height="433.464" fill="#38373A"/>
<rect x="72.9192" y="1618.82" width="64.817" height="24.3064" fill="#7E7E7E"/>
<rect x="72.9192" y="1675.53" width="64.817" height="20.2553" fill="#7E7E7E"/>
<path d="M82.2557 1604.88C84.5555 1564.38 57.9369 1556.77 47.0978 1562.1L46.8067 2335.86L160.344 2335.86L160.344 1739.09C154.799 1720.42 158.194 1707.68 160.584 1703.65L161.579 1556.8C138.871 1559.89 133.666 1590.71 133.906 1605.23L133.659 1641.69C135.305 1647.77 136.977 1660.14 130.49 1660.91C124.003 1661.67 123.649 1674.03 124.283 1680.11L125.831 2049.79L107.491 2065.87L89.3855 2047.51L91.8755 1679.89C91.8755 1679.89 90.9794 1662.66 85.9294 1660.61C81.8894 1658.96 81.6323 1647.07 82.0087 1641.34L82.2557 1604.88Z" fill="#9A9A9A"/>
<mask id="mask1_10_5277" style="mask-type:alpha" maskUnits="userSpaceOnUse" x="47" y="1554" width="121" height="777">
<path d="M82.2554 1602.85C84.5553 1562.36 57.9367 1554.75 47.0975 1560.08L47.0975 2330.79L167.106 2330.79L160.344 1737.07C154.799 1718.4 158.193 1705.66 160.584 1701.62L161.579 1554.78C138.871 1557.86 133.666 1588.68 133.905 1603.2L133.658 1639.66C135.305 1645.75 136.977 1658.12 130.49 1658.88C124.003 1659.65 123.649 1672 124.283 1678.08L125.83 2047.76L107.491 2063.84L89.3853 2045.49L91.8752 1677.86C91.8752 1677.86 90.9791 1660.64 85.9291 1658.58C81.8891 1656.93 81.632 1645.05 82.0085 1639.31L82.2554 1602.85Z" fill="#9A9A9A"/>
</mask>
<g mask="url(#mask1_10_5277)">
<rect x="66.8425" y="1556.03" width="36.4596" height="787.932" fill="#A9A9A7"/>
</g>
<path d="M66.4597 2396.62L42.5361 2358.14H164.068L143.972 2396.62H66.4597Z" fill="#A9A9A7"/>
<circle cx="104.315" cy="2263.95" r="27.3447" fill="#38373A"/>
<rect x="30.3831" y="2435.11" width="28.3574" height="28.3574" fill="#A9A9A7"/>
<rect x="70.8936" y="2435.11" width="28.3574" height="28.3574" fill="#A9A9A7"/>
<rect x="111.404" y="2435.11" width="28.3574" height="28.3574" fill="#A9A9A7"/>
<rect x="151.915" y="2435.11" width="28.3574" height="28.3574" fill="#A9A9A7"/>
<path d="M174.196 1732.25H184.323C188.798 1732.25 192.426 1735.87 192.426 1740.35V1766.68C192.426 1771.16 188.798 1774.78 184.323 1774.78H174.196V1732.25Z" fill="#38373A"/>
<path d="M26.3318 1980.37L28.3573 1977.34H31.3956V1988.48H28.3573L26.3318 1985.44V1980.37Z" fill="#C1BBAF"/>
<path d="M26.3318 1968.22L28.3573 1965.18H31.3956V1976.32H28.3573L26.3318 1973.29V1968.22Z" fill="#C1BBAF"/>
<path d="M26.3318 1992.53L28.3573 1989.49H31.3956V2000.63H28.3573L26.3318 1997.59V1992.53Z" fill="#C1BBAF"/>
<path d="M26.3318 2004.68L28.3573 2001.64H31.3956V2012.78H28.3573L26.3318 2009.74V2004.68Z" fill="#C1BBAF"/>
<path d="M26.3318 2016.83L28.3573 2013.8H31.3956V2024.94H28.3573L26.3318 2021.9V2016.83Z" fill="#C1BBAF"/>
<path d="M26.3318 2028.99L28.3573 2025.95H31.3956V2037.09H28.3573L26.3318 2034.05V2028.99Z" fill="#C1BBAF"/>
<path d="M26.3318 2041.14L28.3573 2038.1H31.3956V2049.24H28.3573L26.3318 2046.2V2041.14Z" fill="#C1BBAF"/>
<path d="M26.3318 2053.29L28.3573 2050.26H31.3956V2061.4H28.3573L26.3318 2058.36V2053.29Z" fill="#C1BBAF"/>
<path d="M26.3318 2065.45L28.3573 2062.41H31.3956V2073.55H28.3573L26.3318 2070.51V2065.45Z" fill="#C1BBAF"/>
<path d="M26.3318 2077.6L28.3573 2074.56H31.3956V2085.7H28.3573L26.3318 2082.66V2077.6Z" fill="#C1BBAF"/>
<rect x="44.5618" y="2335.86" width="115.455" height="24.3064" fill="#38373A"/>
</svg>
