<svg width="218" height="2635" viewBox="0 0 218 2635" fill="none" xmlns="http://www.w3.org/2000/svg">
<path d="M14.6265 1715H68.6265V1801.65C64.6265 1779.34 30.9599 1774.43 14.6265 1774.76C-4.37251 1774.76 -5.3721 1715 14.6265 1715Z" fill="#D3D3D3"/>
<path d="M83 111.287V1786.46H170V111.287C170 -37.0956 83 -37.0956 83 111.287Z" fill="#519EBF"/>
<rect x="96" y="1726.95" width="83" height="48.8008" fill="#D3D3D3"/>
<path d="M178.291 1725.97L185.101 1714.52C185.497 1713.85 185.017 1713.01 184.241 1713.01H116C115.448 1713.01 115 1713.46 115 1714.01V1725.45C115 1726.01 115.448 1726.45 116 1726.45H177.431C177.784 1726.45 178.11 1726.27 178.291 1725.97Z" fill="#D3D3D3"/>
<path d="M178.291 1773.25L185.101 1784.7C185.497 1785.37 185.017 1786.21 184.241 1786.21H116C115.448 1786.21 115 1785.76 115 1785.21V1773.77C115 1773.21 115.448 1772.77 116 1772.77H177.431C177.784 1772.77 178.11 1772.95 178.291 1773.25Z" fill="#D3D3D3"/>
<rect width="83" height="3.98374" transform="matrix(1 0 0 -1 96 1726.95)" fill="#C1BBB8"/>
<rect width="83" height="3.98374" transform="matrix(1 0 0 -1 96 1776.75)" fill="#C1BBB8"/>
<path d="M44 2323.3C44 2318.89 47.5817 2315.3 52 2315.3H78V2607.11H52C47.5817 2607.11 44 2603.53 44 2599.11V2323.3Z" fill="#38373A"/>
<path d="M176 2315.3H201C205.418 2315.3 209 2318.89 209 2323.3V2599.11C209 2603.53 205.418 2607.11 201 2607.11H176V2315.3Z" fill="#38373A"/>
<rect x="69.5151" y="1865.99" width="103.123" height="195.138" fill="url(#paint0_linear_196_24473)"/>
<rect x="70" y="1850.2" width="119" height="766.87" fill="#D3D3D3"/>
<path d="M189 1802.15V1851.44H68V1663.21C92.1402 1672.84 139.56 1702.55 145 1738.9C149.844 1771.27 175.5 1786.71 189 1802.15Z" fill="#C1BBB8"/>
<path d="M189 1808.62V1857.42H70V1669.19C92.9815 1678.82 135.28 1706.55 139.889 1738.9C144.5 1771.27 176.5 1792.19 189 1808.62Z" fill="#D3D3D3"/>
<path d="M146 1756.83C153 1768.28 155.5 1771.77 161 1780.73V2326.51H144L146 1756.83Z" fill="#A9A9A7"/>
<rect x="80" y="2315.3" width="34" height="291.809" rx="8" fill="#38373A"/>
<path d="M137 2323.3C137 2318.89 140.582 2315.3 145 2315.3H162C166.418 2315.3 170 2318.89 170 2323.3V2599.11C170 2603.53 166.418 2607.11 162 2607.11H145C140.582 2607.11 137 2603.53 137 2599.11V2323.3Z" fill="#38373A"/>
<path d="M70 2617.07H189V2627.27C189 2631.54 185.537 2635 181.266 2635H77.7343C73.4627 2635 70 2631.54 70 2627.27V2617.07Z" fill="#9A9A9A"/>
<path d="M68 1669.19H73V1848.44C73 1850.65 71.2091 1852.44 69 1852.44H68V1669.19Z" fill="#C1BBB8"/>
<rect x="40" y="1814.59" width="33" height="58.7602" fill="#D3D3D3"/>
<ellipse cx="41.5" cy="1843.97" rx="14.5" ry="29.3801" fill="#DCBA33"/>
<path d="M162.5 1849.46C172.71 1849.46 181 1841.22 181 1831.03C181 1820.84 172.71 1812.59 162.5 1812.59C152.29 1812.59 144 1820.84 144 1831.03C144 1841.22 152.29 1849.46 162.5 1849.46Z" fill="#555F69" stroke="#D3D3D3" stroke-width="4"/>
<rect x="58" y="2105.41" width="145" height="52.7846" rx="12" fill="#D3D3D3"/>
<rect x="55" y="2240.85" width="145" height="47.8049" rx="12" fill="#D3D3D3"/>
<rect width="121" height="3.98374" transform="matrix(1 0 0 -1 69 2292.64)" fill="#C1BBB8"/>
<rect width="121" height="3.98374" transform="matrix(1 0 0 -1 69 2106.4)" fill="#C1BBB8"/>
<rect width="117" height="3.98374" transform="matrix(1 0 0 -1 71 2242.85)" fill="#C1BBB8"/>
<rect width="117" height="3.98374" transform="matrix(1 0 0 -1 71 2233.88)" fill="#C1BBB8"/>
<rect width="117" height="3.98374" transform="matrix(1 0 0 -1 71 2224.92)" fill="#C1BBB8"/>
<rect width="117" height="3.98374" transform="matrix(1 0 0 -1 71 2215.96)" fill="#C1BBB8"/>
<rect width="117" height="3.98374" transform="matrix(1 0 0 -1 71 2206.99)" fill="#C1BBB8"/>
<rect width="117" height="3.98374" transform="matrix(1 0 0 -1 71 2198.03)" fill="#C1BBB8"/>
<rect width="117" height="3.98374" transform="matrix(1 0 0 -1 71 2189.07)" fill="#C1BBB8"/>
<rect width="117" height="3.98374" transform="matrix(1 0 0 -1 71 2180.1)" fill="#C1BBB8"/>
<rect width="117" height="3.98374" transform="matrix(1 0 0 -1 71 2171.14)" fill="#C1BBB8"/>
<rect width="117" height="3.98374" transform="matrix(1 0 0 -1 71 2162.18)" fill="#C1BBB8"/>
<rect width="82.6627" height="4.00001" transform="matrix(-5.08426e-08 1 1 3.75804e-08 76 2160.18)" fill="#C1BBB8"/>
<rect width="82.6627" height="4.00001" transform="matrix(-5.08426e-08 1 1 3.75804e-08 85 2160.18)" fill="#C1BBB8"/>
<rect width="82.6627" height="4.00001" transform="matrix(-5.08426e-08 1 1 3.75804e-08 94 2160.18)" fill="#C1BBB8"/>
<rect width="82.6627" height="4.00001" transform="matrix(-5.08426e-08 1 1 3.75804e-08 103 2160.18)" fill="#C1BBB8"/>
<rect width="82.6627" height="4.00001" transform="matrix(-5.08426e-08 1 1 3.75804e-08 112 2160.18)" fill="#C1BBB8"/>
<rect width="82.6627" height="4.00001" transform="matrix(-5.08426e-08 1 1 3.75804e-08 121 2160.18)" fill="#C1BBB8"/>
<rect width="82.6627" height="4.00001" transform="matrix(-5.08426e-08 1 1 3.75804e-08 130 2160.18)" fill="#C1BBB8"/>
<rect width="82.6627" height="4.00001" transform="matrix(-5.08426e-08 1 1 3.75804e-08 139 2160.18)" fill="#C1BBB8"/>
<rect width="82.6627" height="4.00001" transform="matrix(-5.08426e-08 1 1 3.75804e-08 148 2160.18)" fill="#C1BBB8"/>
<rect width="82.6627" height="4.00001" transform="matrix(-5.08426e-08 1 1 3.75804e-08 157 2160.18)" fill="#C1BBB8"/>
<rect width="82.6627" height="4.00001" transform="matrix(-5.08426e-08 1 1 3.75804e-08 166 2161.18)" fill="#C1BBB8"/>
<rect width="82.6627" height="4.00001" transform="matrix(-5.08426e-08 1 1 3.75804e-08 175 2161.18)" fill="#C1BBB8"/>
<rect width="82.6627" height="4.00001" transform="matrix(-5.08426e-08 1 1 3.75804e-08 184 2161.18)" fill="#C1BBB8"/>
<rect x="133" y="2120.35" width="40.2701" height="157.81" fill="#DEB835"/>
<g opacity="0.67">
<rect width="35.0175" height="3.48752" transform="matrix(-1 -8.70675e-08 -7.48247e-08 1 170.644 2232.82)" fill="#7F6C36"/>
<rect width="35.0175" height="3.48752" transform="matrix(-1 -8.70675e-08 -7.48247e-08 1 170.644 2224.97)" fill="#7F6C36"/>
<rect width="35.0175" height="3.48752" transform="matrix(-1 -8.70675e-08 -7.48247e-08 1 170.644 2218)" fill="#7F6C36"/>
<rect width="35.0175" height="3.48752" transform="matrix(-1 -8.70675e-08 -7.48247e-08 1 170.644 2211.02)" fill="#7F6C36"/>
<rect width="35.0175" height="3.48752" transform="matrix(-1 -8.70675e-08 -7.48247e-08 1 170.644 2203.18)" fill="#7F6C36"/>
<rect width="35.0175" height="3.48752" transform="matrix(-1 -8.70675e-08 -7.48247e-08 1 170.644 2196.2)" fill="#7F6C36"/>
<rect width="35.0175" height="3.48752" transform="matrix(-1 -8.70675e-08 -7.48247e-08 1 170.644 2189.23)" fill="#7F6C36"/>
<rect width="35.0175" height="3.48752" transform="matrix(-1 -8.70675e-08 -7.48247e-08 1 170.644 2181.38)" fill="#7F6C36"/>
<rect width="35.0175" height="3.48752" transform="matrix(-1 -8.70675e-08 -7.48247e-08 1 170.644 2174.4)" fill="#7F6C36"/>
<rect width="35.0175" height="3.48752" transform="matrix(-1 -8.70675e-08 -7.48247e-08 1 170.644 2167.43)" fill="#7F6C36"/>
<rect width="35.0175" height="3.48752" transform="matrix(-1 -8.70675e-08 -7.48247e-08 1 170.644 2159.58)" fill="#7F6C36"/>
<rect width="35.0175" height="3.48752" transform="matrix(-1 -8.70675e-08 -7.48247e-08 1 170.644 2124.71)" fill="#7F6C36"/>
<rect width="28.772" height="3.50175" transform="matrix(1.0885e-08 1 1 -2.71988e-08 147.882 2128.19)" fill="#7F6C36"/>
<rect width="28.772" height="3.50175" transform="matrix(1.0885e-08 1 1 -2.71988e-08 154.886 2128.19)" fill="#7F6C36"/>
<rect width="19.1813" height="3.50175" transform="matrix(1.19735e-08 1 1 -2.47262e-08 167.142 2124.71)" fill="#7F6C36"/>
<rect width="19.1813" height="3.50175" transform="matrix(1.19249e-08 1 1 -2.48271e-08 135.626 2124.71)" fill="#7F6C36"/>
<rect x="170.644" y="2274.67" width="35.0175" height="3.48752" transform="rotate(180 170.644 2274.67)" fill="#7F6C36"/>
<rect x="147.882" y="2271.18" width="28.772" height="3.50175" transform="rotate(-90 147.882 2271.18)" fill="#7F6C36"/>
<rect x="154.886" y="2271.18" width="28.772" height="3.50175" transform="rotate(-90 154.886 2271.18)" fill="#7F6C36"/>
<rect x="167.142" y="2274.67" width="19.1813" height="3.50175" transform="rotate(-90 167.142 2274.67)" fill="#7F6C36"/>
<rect x="135.626" y="2274.67" width="19.1813" height="3.50175" transform="rotate(-90 135.626 2274.67)" fill="#7F6C36"/>
</g>
<path d="M201 2226.41C195.157 2207.99 246.223 2179.16 192.543 2143.17C190.596 2141.87 188 2143.28 188 2145.62V2260.76C188 2262.42 189.343 2263.76 191 2263.76H201C202.657 2263.76 204 2262.42 204 2260.76V2246.89C204 2246.85 204.001 2246.82 204.002 2246.78C204.024 2246.01 204.229 2236.6 201 2226.41Z" fill="#DEB835"/>
<defs>
<linearGradient id="paint0_linear_196_24473" x1="172.639" y1="1967.41" x2="69.5151" y2="1967.41" gradientUnits="userSpaceOnUse">
<stop offset="0.24" stop-color="#A5A6A3"/>
<stop offset="0.25" stop-color="#D3D3D3"/>
<stop offset="0.59" stop-color="#D3D3D3"/>
<stop offset="0.6" stop-color="#A9A7A6"/>
</linearGradient>
</defs>
</svg>
