<svg width="476" height="2672" viewBox="0 0 476 2672" fill="none" xmlns="http://www.w3.org/2000/svg">
<path d="M371 119.855V1924H458V119.855C458 -39.9516 371 -39.9516 371 119.855Z" fill="#FF3434"/>
<path d="M422.422 1777.07V1737.92C422.422 1735.68 420.017 1734.25 418.05 1735.33C322.32 1788.24 313.378 1912.39 321.186 1970.31C321.33 1971.38 322.046 1972.24 323.055 1972.64L371.334 1991.41C373.301 1992.18 375.422 1990.72 375.422 1988.61V1932.99C375.422 1932.35 375.214 1931.72 374.83 1931.2L350.23 1898.09C349.716 1897.4 349.527 1896.5 349.71 1895.66C365.374 1823.75 402.401 1789.19 420.68 1779.84C421.729 1779.3 422.422 1778.24 422.422 1777.07Z" fill="#EAE6E3"/>
<path d="M357.89 1976.8C357.89 2032.5 365.39 2092 333.89 2124L418.89 2161C456.39 2080 447.345 2033 447.345 1976.8L357.89 1976.8Z" fill="#EAE6E3"/>
<path d="M408.5 1981.5C409.333 2025.67 408.5 2099.5 380.5 2140" stroke="#9A9A9A" stroke-width="5"/>
<path d="M349.422 1929.36L339.375 1941.36C338.83 1942.01 339.293 1943 340.142 1943H473.921C474.759 1943 475.225 1942.03 474.702 1941.38L465.111 1929.38C464.921 1929.14 464.634 1929 464.33 1929H350.189C349.893 1929 349.612 1929.13 349.422 1929.36Z" fill="#EAE6E3" stroke="#A9A9A7" stroke-width="2"/>
<path d="M349.422 1956.64L339.375 1944.64C338.83 1943.99 339.293 1943 340.142 1943H473.921C474.759 1943 475.225 1943.97 474.702 1944.62L465.111 1956.62C464.921 1956.86 464.634 1957 464.33 1957H350.189C349.893 1957 349.612 1956.87 349.422 1956.64Z" fill="#EAE6E3" stroke="#A9A9A7" stroke-width="2"/>
<path d="M358 1979.5L351 1958L461.969 1957.02C462.798 1957.01 463.276 1957.96 462.775 1958.62L447 1979.5H358Z" fill="#EAE6E3" stroke="#A9A9A7" stroke-width="2"/>
<rect x="357" y="2009" width="50" height="11" fill="#9A9A9A"/>
<path d="M356.999 2027.5L406.826 2029L406.826 2042.13L357 2037.97L356.999 2027.5Z" fill="#9A9A9A"/>
<path d="M357 2046L405 2052.5L403.5 2064.5L356.5 2057L357 2046Z" fill="#9A9A9A"/>
<path d="M355.999 2065L402.332 2076L402.331 2088.78L355 2074.5L355.999 2065Z" fill="#9A9A9A"/>
<path d="M352.722 2085L399.107 2101.6L395.733 2111.02L350.222 2094L352.722 2085Z" fill="#9A9A9A"/>
<rect x="318.872" y="2117" width="128" height="31" rx="15.5" transform="rotate(24.5327 318.872 2117)" fill="#EAE6E3"/>
<rect x="321.807" y="2152" width="95.7181" height="2" transform="rotate(23.7822 321.807 2152)" fill="#C1BBB8"/>
<rect x="325.961" y="2162" width="87.0774" height="250" transform="rotate(24.3208 325.961 2162)" fill="#7E7E7E"/>
<rect x="379.961" y="2187" width="27.1487" height="250" transform="rotate(24.3208 379.961 2187)" fill="#38373A"/>
<rect x="320.961" y="2162" width="30.4858" height="250" transform="rotate(24.3208 320.961 2162)" fill="#38373A"/>
<path d="M410.5 2188L400 2209C384.5 2191 354 2178 333 2175C283.699 2252 288 2382.5 310.5 2407L298.5 2434L215 2394L224.5 2375C250.1 2394.6 273 2400.33 281 2400.5C274 2347.5 275.978 2271.34 293 2214C299.333 2192.67 323 2148.5 323 2148.5L410.5 2188Z" fill="#EAE6E3"/>
<rect x="333.807" y="2122" width="95.7181" height="2" transform="rotate(23.7822 333.807 2122)" fill="#C1BBB8"/>
<path d="M313 2415L223 2373C208.943 2398.1 197.496 2429 164 2429L229 2513C265 2481 295 2463.5 313 2415Z" fill="#9A9A9A"/>
<circle cx="236" cy="2456" r="13" fill="#A78827"/>
<rect x="70.7632" y="2479.44" width="114.392" height="91.8435" rx="8" transform="rotate(50.0544 70.7632 2479.44)" fill="#EAE6E3"/>
<rect x="54.7852" y="2492.18" width="3.75349" height="113.758" transform="rotate(-40.2524 54.7852 2492.18)" fill="#D3D3D3"/>
<rect x="17.2778" y="2526.17" width="3.75349" height="113.758" transform="rotate(-40.2524 17.2778 2526.17)" fill="#D3D3D3"/>
<circle cx="55" cy="2525" r="13" fill="#A78827"/>
<path d="M137.397 2492.04C140.801 2489.22 145.844 2489.7 148.66 2493.1L203.926 2559.9C208.151 2565.01 207.436 2572.57 202.33 2576.8L94.1255 2666.32C90.7213 2669.14 85.6784 2668.66 82.862 2665.26L32.6953 2604.62C25.6542 2596.11 26.8455 2583.5 35.3561 2576.46L137.397 2492.04Z" fill="#A9A9A7"/>
<rect x="196.312" y="2548" width="3.75349" height="161.342" transform="rotate(50.398 196.312 2548)" fill="#9A9A9A"/>
<path d="M151 2435.5L167 2442.5L130 2475.5H103.5V2453H130L151 2435.5Z" fill="#FF3434"/>
<rect x="169.849" y="2427.18" width="114.392" height="86.3478" rx="8" transform="rotate(50.398 169.849 2427.18)" fill="#38373A"/>
<rect x="175.359" y="2434" width="30.0991" height="85.6403" transform="rotate(49.5582 175.359 2434)" fill="#7E7E7E"/>
</svg>
