<svg width="184" height="2600" viewBox="0 0 184 2600" fill="none" xmlns="http://www.w3.org/2000/svg">
<path d="M2 2286.75C2 2282.34 5.58172 2278.75 10 2278.75H36V2571.75H10C5.58172 2571.75 2 2568.17 2 2563.75V2286.75Z" fill="#38373A"/>
<path d="M134 2278.75H159C163.418 2278.75 167 2282.34 167 2286.75V2563.75C167 2568.17 163.418 2571.75 159 2571.75H134V2278.75Z" fill="#38373A"/>
<path d="M41 111.741V1793.75H128V111.741C128 -37.247 41 -37.247 41 111.741Z" fill="#FF3434"/>
<rect x="27.5151" y="1827.61" width="103.123" height="195.935" fill="url(#paint0_linear_196_24525)"/>
<rect x="28" y="1811.75" width="119" height="770" fill="url(#paint1_linear_196_24525)"/>
<rect x="46" y="1928.75" width="46" height="15" rx="7.5" fill="#38373A"/>
<rect x="46" y="1960.75" width="46" height="15" rx="7.5" fill="#38373A"/>
<path d="M159 2086.33C159 2084.91 160.154 2083.75 161.578 2083.75H177V2184.75H161.578C160.154 2184.75 159 2183.6 159 2182.18V2086.33Z" fill="#9A9A9A"/>
<path d="M175 2084.74C175 2083.78 176.221 2083.38 176.799 2084.14L183.799 2093.44C183.929 2093.62 184 2093.83 184 2094.04V2173.96C184 2174.17 183.934 2174.37 183.811 2174.54L176.811 2184.24C176.243 2185.03 175 2184.63 175 2183.66V2084.74Z" fill="#38373A"/>
<rect x="16" y="2055.75" width="143" height="162" rx="4" fill="#38373A"/>
<rect x="65" y="2070.75" width="60" height="147" fill="#484C52"/>
<rect x="38" y="2278.75" width="34" height="293" rx="8" fill="#38373A"/>
<path d="M95 2286.75C95 2282.34 98.5817 2278.75 103 2278.75H120C124.418 2278.75 128 2282.34 128 2286.75V2563.75C128 2568.17 124.418 2571.75 120 2571.75H103C98.5817 2571.75 95 2568.17 95 2563.75V2286.75Z" fill="#38373A"/>
<path d="M28 2581.75H147V2592.02C147 2596.29 143.537 2599.75 139.266 2599.75H35.7343C31.4627 2599.75 28 2596.29 28 2592.02V2581.75Z" fill="#9A9A9A"/>
<path d="M25 1769.25V1812.75C25 1814.41 26.3431 1815.75 28 1815.75H147C148.657 1815.75 150 1814.41 150 1812.75V1679.76C150 1677.29 147.174 1675.88 145.197 1677.36L26.1969 1766.85C25.4433 1767.42 25 1768.31 25 1769.25Z" fill="#38373A"/>
<mask id="mask0_196_24525" style="mask-type:alpha" maskUnits="userSpaceOnUse" x="25" y="1676" width="125" height="140">
<path d="M25 1769.25V1812.75C25 1814.41 26.3431 1815.75 28 1815.75H147C148.657 1815.75 150 1814.41 150 1812.75V1679.76C150 1677.29 147.174 1675.88 145.197 1677.36L26.1969 1766.85C25.4433 1767.42 25 1768.31 25 1769.25Z" fill="#484C52"/>
</mask>
<g mask="url(#mask0_196_24525)">
<rect x="62" y="1686.75" width="60" height="127" fill="#484C52"/>
</g>
<path d="M0 1835.75C0 1829.13 5.37258 1823.75 12 1823.75H131V1864.75H12C5.37258 1864.75 0 1859.38 0 1852.75V1835.75Z" fill="#38373A"/>
<path d="M131.5 1862.75V1891.75C131.5 1891.75 109.5 1894.25 104 1891.75C98 1889.25 85 1862.75 85 1862.75H131.5Z" fill="#38373A"/>
<mask id="mask1_196_24525" style="mask-type:alpha" maskUnits="userSpaceOnUse" x="0" y="1823" width="132" height="70">
<path d="M0 1835.75C0 1829.13 5.37258 1823.75 12 1823.75H131V1864.75H12C5.37258 1864.75 0 1859.38 0 1852.75V1835.75Z" fill="#484C52"/>
<path d="M131.5 1862.75V1891.75C131.5 1891.75 109.5 1894.25 104 1891.75C98 1889.25 85 1862.75 85 1862.75H131.5Z" fill="#484C52"/>
</mask>
<g mask="url(#mask1_196_24525)">
<rect x="55" y="1780.75" width="60" height="127" fill="#484C52"/>
</g>
<path d="M136 1823.75H151C155.418 1823.75 159 1827.33 159 1831.75V1884.75C159 1889.17 155.418 1892.75 151 1892.75H136V1823.75Z" fill="#38373A"/>
<path d="M147 1879.75H152V1944.75C152 1946.96 150.209 1948.75 148 1948.75H147V1879.75Z" fill="#38373A"/>
<defs>
<linearGradient id="paint0_linear_196_24525" x1="130.639" y1="1929.44" x2="27.5151" y2="1929.44" gradientUnits="userSpaceOnUse">
<stop offset="0.24" stop-color="#A5A6A3"/>
<stop offset="0.25" stop-color="#D3D3D3"/>
<stop offset="0.59" stop-color="#D3D3D3"/>
<stop offset="0.6" stop-color="#A9A7A6"/>
</linearGradient>
<linearGradient id="paint1_linear_196_24525" x1="147" y1="2211.95" x2="28" y2="2211.95" gradientUnits="userSpaceOnUse">
<stop offset="0.24" stop-color="#CCC8C6"/>
<stop offset="0.25" stop-color="#D3D3D3"/>
<stop offset="0.59" stop-color="#D3D3D3"/>
<stop offset="0.6" stop-color="#A9A7A6"/>
</linearGradient>
</defs>
</svg>
