<svg width="219" height="8596" viewBox="0 0 219 8596" fill="none" xmlns="http://www.w3.org/2000/svg">
<path d="M219.001 5373.41C207.811 5455.66 185.014 5621.46 183.335 5626.66L36.4796 5626.66L0.814643 5373.41L219.001 5373.41Z" fill="#EAE6E3"/>
<path d="M183.178 8411.5L183.178 5634.21L41.5205 5634.21L41.5202 8411.5C41.5202 8657.5 183.178 8657.5 183.178 8411.5Z" fill="#FF3434"/>
<path d="M219 5589.37C207.811 5541.64 185.014 5445.44 183.335 5442.42L36.4796 5442.42L0.814623 5589.37L219 5589.37Z" fill="#EAE6E3"/>
<path d="M219 5685.45C219 5705.14 201.376 5720.37 181.774 5718.56C162.579 5716.8 137.433 5715.17 109.908 5715.17C82.3821 5715.17 57.2359 5716.8 38.0407 5718.56C18.4395 5720.37 0.814622 5705.14 0.814624 5685.45L0.814632 5589.37L219 5589.37L219 5685.45Z" fill="#EAE6E3"/>
<rect x="181.55" y="4734.39" width="146.543" height="28.9446" rx="4" transform="rotate(-180 181.55 4734.39)" fill="#EAE6E3"/>
<rect x="181.55" y="4772.24" width="146.543" height="28.9446" rx="4" transform="rotate(-180 181.55 4772.24)" fill="#EAE6E3"/>
<rect x="181.55" y="4810.1" width="146.543" height="28.9446" rx="4" transform="rotate(-180 181.55 4810.1)" fill="#EAE6E3"/>
<rect x="181.55" y="4847.95" width="146.543" height="28.9446" rx="4" transform="rotate(-180 181.55 4847.95)" fill="#EAE6E3"/>
<path d="M177.304 4696.54L189.692 4672.05L31.7514 4672.05L44.1389 4696.54L177.304 4696.54Z" fill="#EAE6E3"/>
<path d="M177.649 4871.7L187.047 4860.11C188.108 4858.8 187.178 4856.85 185.494 4856.85L32.6926 4856.85C31.0092 4856.85 30.0789 4858.8 31.1394 4860.11L40.5375 4871.7C40.9172 4872.17 41.4879 4872.44 42.0907 4872.44L176.096 4872.44C176.699 4872.44 177.27 4872.17 177.649 4871.7Z" fill="#EAE6E3"/>
<rect x="176.666" y="5589.37" width="133.517" height="1291.37" transform="rotate(-180 176.666 5589.37)" fill="#EAE6E3"/>
<rect x="108.279" y="5593.82" width="40.7063" height="1291.37" transform="rotate(-180 108.279 5593.82)" fill="#F4F2EE"/>
<path d="M105.023 5482.59L105.023 5571.56L75.6383 5571.56L58.8472 5482.59L105.023 5482.59Z" fill="#555F69"/>
<path d="M0.000484228 5373.41C0.000484228 5373.41 40.4062 5327.99 41.9593 5327.04L177.856 5327.04L219 5373.41L0.000484228 5373.41Z" fill="#D3D3D3"/>
<path d="M22.7958 5571.56L37.4501 5504.76L55.1388 5504.76L67.5727 5571.56L22.7958 5571.56Z" fill="#555F69"/>
<path d="M149.8 5571.56L164.454 5504.76L182.143 5504.76L194.577 5571.56L149.8 5571.56Z" fill="#555F69"/>
<path d="M114.208 5482.59L114.208 5571.56L143.592 5571.56L160.383 5482.59L114.208 5482.59Z" fill="#555F69"/>
<rect x="219" y="5667.3" width="218.186" height="8.90601" transform="rotate(-180 219 5667.3)" fill="#555F69"/>
<rect x="219" y="5649.49" width="218.186" height="8.90601" transform="rotate(-180 219 5649.49)" fill="#555F69"/>
<rect x="219" y="5631.67" width="218.186" height="8.90601" transform="rotate(-180 219 5631.67)" fill="#555F69"/>
<rect x="219" y="5613.86" width="218.186" height="8.90601" transform="rotate(-180 219 5613.86)" fill="#555F69"/>
<rect x="176.666" y="5284.34" width="133.517" height="8.90601" transform="rotate(-180 176.666 5284.34)" fill="#555F69"/>
<rect x="176.666" y="5157.43" width="133.517" height="8.90601" transform="rotate(-180 176.666 5157.43)" fill="#555F69"/>
<rect x="176.666" y="4881.34" width="133.517" height="8.90601" transform="rotate(-180 176.666 4881.34)" fill="#C1BBB8"/>
<rect x="179.922" y="5330.61" width="136.773" height="8.91699" transform="rotate(-180 179.922 5330.61)" fill="#C1BBB8"/>
<rect x="176.666" y="4819" width="133.517" height="8.90601" transform="rotate(-180 176.666 4819)" fill="#555F69"/>
<rect x="176.666" y="4856.85" width="133.517" height="8.90601" transform="rotate(-180 176.666 4856.85)" fill="#555F69"/>
<rect x="194.577" y="4672.05" width="169.338" height="13.3591" rx="4" transform="rotate(-180 194.577 4672.05)" fill="#555F69"/>
<rect x="176.666" y="4705.45" width="133.517" height="8.90601" transform="rotate(-180 176.666 4705.45)" fill="#555F69"/>
<rect x="176.666" y="4743.3" width="133.517" height="8.90601" transform="rotate(-180 176.666 4743.3)" fill="#555F69"/>
<rect x="176.666" y="4781.15" width="133.517" height="8.90601" transform="rotate(-180 176.666 4781.15)" fill="#555F69"/>
<rect x="176.666" y="4611.94" width="133.517" height="8.90601" transform="rotate(-180 176.666 4611.94)" fill="#C1BBB8"/>
<path d="M177.962 4315.18C177.811 4315.56 177.443 4315.81 177.033 4315.81L42.0219 4315.81C41.5983 4315.81 41.2207 4315.55 41.0793 4315.15L35.4802 4299.33C35.2497 4298.68 35.7324 4298 36.4228 4298L183.332 4298C184.039 4298 184.523 4298.71 184.261 4299.37L177.962 4315.18Z" fill="#555F69"/>
<rect x="130.075" y="4481.91" width="43.5911" height="95.1611" rx="21.7955" transform="rotate(-180 130.075 4481.91)" fill="#EAE6E3" stroke="#D3D3D3" stroke-width="2"/>
<ellipse cx="107.465" cy="4519.79" rx="26.8662" ry="27.8888" transform="rotate(-180 107.465 4519.79)" fill="#B84C63"/>
<ellipse cx="108.279" cy="4409.14" rx="22.7955" ry="23.3909" transform="rotate(-180 108.279 4409.14)" fill="#D3D3D3"/>
<rect x="130.075" y="5040.12" width="43.5911" height="95.1614" rx="21.7955" transform="rotate(-180 130.075 5040.12)" fill="#EAE6E3" stroke="#D3D3D3" stroke-width="2"/>
<ellipse cx="107.465" cy="5078" rx="26.8662" ry="27.8888" transform="rotate(-180 107.465 5078)" fill="#B84C63"/>
<ellipse cx="108.279" cy="4967.35" rx="22.7955" ry="23.3906" transform="rotate(-180 108.279 4967.35)" fill="#D3D3D3"/>
<rect x="57.8032" y="5110.67" width="22.7955" height="26.718" rx="4" transform="rotate(-180 57.8032 5110.67)" fill="#EAE6E3"/>
<rect x="57.8032" y="5077.28" width="22.7955" height="26.718" rx="4" transform="rotate(-180 57.8032 5077.28)" fill="#EAE6E3"/>
<rect x="57.8032" y="5110.67" width="22.7955" height="26.718" rx="4" transform="rotate(-180 57.8032 5110.67)" fill="#EAE6E3"/>
<rect x="57.8032" y="5077.28" width="22.7955" height="26.718" rx="4" transform="rotate(-180 57.8032 5077.28)" fill="#EAE6E3"/>
<rect x="57.8032" y="4549.46" width="22.7955" height="26.718" rx="4" transform="rotate(-180 57.8032 4549.46)" fill="#EAE6E3"/>
<rect x="57.8032" y="4516.07" width="22.7955" height="26.718" rx="4" transform="rotate(-180 57.8032 4516.07)" fill="#EAE6E3"/>
<path d="M0 3222.59C11.189 3140.34 33.9866 2974.54 35.665 2969.34H182.521L218.186 3222.59H0Z" fill="#EAE6E3"/>
<path d="M35.8218 184.504V2961.79H177.48V184.504C177.48 -61.5012 35.8218 -61.5012 35.8218 184.504Z" fill="#FF3434"/>
<path d="M0 3006.63C11.189 3054.36 33.9866 3150.56 35.665 3153.58H182.521L218.186 3006.63H0Z" fill="#EAE6E3"/>
<path d="M0 2910.55C0 2890.86 17.6249 2875.63 37.2261 2877.44C56.4213 2879.2 81.5675 2880.83 109.093 2880.83C136.618 2880.83 161.765 2879.2 180.96 2877.44C200.561 2875.63 218.186 2890.86 218.186 2910.55V3006.63H0V2910.55Z" fill="#EAE6E3"/>
<rect x="37.4497" y="3861.61" width="146.543" height="28.9446" rx="4" fill="#EAE6E3"/>
<rect x="37.4497" y="3823.76" width="146.543" height="28.9446" rx="4" fill="#EAE6E3"/>
<rect x="37.4497" y="3785.9" width="146.543" height="28.9446" rx="4" fill="#EAE6E3"/>
<rect x="37.4497" y="3748.05" width="146.543" height="28.9446" rx="4" fill="#EAE6E3"/>
<path d="M41.6961 3899.46L29.3086 3923.95H187.249L174.862 3899.46H41.6961Z" fill="#EAE6E3"/>
<path d="M41.3512 3724.3L31.9531 3735.89C30.8926 3737.2 31.823 3739.15 33.5063 3739.15H186.308C187.991 3739.15 188.922 3737.2 187.861 3735.89L178.463 3724.3C178.083 3723.83 177.513 3723.56 176.91 3723.56H42.9044C42.3016 3723.56 41.7309 3723.83 41.3512 3724.3Z" fill="#EAE6E3"/>
<rect x="42.3345" y="3006.63" width="133.517" height="1291.37" fill="#EAE6E3"/>
<rect x="110.721" y="3002.18" width="40.7063" height="1291.37" fill="#F4F2EE"/>
<path d="M113.978 3113.41V3024.44H143.362L160.153 3113.41H113.978Z" fill="#555F69"/>
<path d="M219 3222.59C219 3222.59 178.594 3268.01 177.041 3268.96H41.1447L0 3222.59H219Z" fill="#D3D3D3"/>
<path d="M196.205 3024.44L181.55 3091.24L163.862 3091.24L151.428 3024.44L196.205 3024.44Z" fill="#555F69"/>
<path d="M69.2008 3024.44L54.5465 3091.24L36.8578 3091.24L24.4238 3024.44L69.2008 3024.44Z" fill="#555F69"/>
<path d="M104.793 3113.41V3024.44H75.4083L58.6172 3113.41H104.793Z" fill="#555F69"/>
<rect y="2928.7" width="218.186" height="8.90601" fill="#555F69"/>
<rect y="2946.51" width="218.186" height="8.90601" fill="#555F69"/>
<rect y="2964.33" width="218.186" height="8.90601" fill="#555F69"/>
<rect y="2982.14" width="218.186" height="8.90601" fill="#555F69"/>
<rect x="42.3345" y="3311.66" width="133.517" height="8.90601" fill="#555F69"/>
<rect x="42.3345" y="3438.57" width="133.517" height="8.90601" fill="#555F69"/>
<rect x="42.3345" y="3714.66" width="133.517" height="8.90601" fill="#C1BBB8"/>
<rect x="39.0781" y="3265.39" width="136.773" height="8.91699" fill="#C1BBB8"/>
<rect x="42.3345" y="3777" width="133.517" height="8.90601" fill="#555F69"/>
<rect x="42.3345" y="3739.15" width="133.517" height="8.90601" fill="#555F69"/>
<rect x="24.4238" y="3923.95" width="169.338" height="13.3591" rx="4" fill="#555F69"/>
<rect x="42.3345" y="3890.55" width="133.517" height="8.90601" fill="#555F69"/>
<rect x="42.3345" y="3852.7" width="133.517" height="8.90601" fill="#555F69"/>
<rect x="42.3345" y="3814.85" width="133.517" height="8.90601" fill="#555F69"/>
<rect x="42.3345" y="3984.06" width="133.517" height="8.90601" fill="#C1BBB8"/>
<path d="M41.0382 4280.82C41.1897 4280.44 41.5578 4280.19 41.9672 4280.19H176.979C177.402 4280.19 177.78 4280.45 177.921 4280.85L183.52 4296.67C183.751 4297.32 183.268 4298 182.578 4298H35.6682C34.9613 4298 34.4776 4297.29 34.7392 4296.63L41.0382 4280.82Z" fill="#555F69"/>
<rect x="88.9253" y="4114.09" width="43.5911" height="95.1611" rx="21.7955" fill="#EAE6E3" stroke="#D3D3D3" stroke-width="2"/>
<ellipse cx="111.535" cy="4076.21" rx="26.8662" ry="27.8888" fill="#B84C63"/>
<ellipse cx="110.721" cy="4186.86" rx="22.7955" ry="23.3909" fill="#D3D3D3"/>
<rect x="88.9253" y="3555.88" width="43.5911" height="95.1614" rx="21.7955" fill="#EAE6E3" stroke="#D3D3D3" stroke-width="2"/>
<ellipse cx="111.535" cy="3518" rx="26.8662" ry="27.8888" fill="#B84C63"/>
<ellipse cx="110.721" cy="3628.65" rx="22.7955" ry="23.3906" fill="#D3D3D3"/>
<rect x="161.197" y="3485.33" width="22.7955" height="26.718" rx="4" fill="#EAE6E3"/>
<rect x="161.197" y="3518.72" width="22.7955" height="26.718" rx="4" fill="#EAE6E3"/>
<rect x="161.197" y="3485.33" width="22.7955" height="26.718" rx="4" fill="#EAE6E3"/>
<rect x="161.197" y="3518.72" width="22.7955" height="26.718" rx="4" fill="#EAE6E3"/>
<rect x="161.197" y="4046.54" width="22.7955" height="26.718" rx="4" fill="#EAE6E3"/>
<rect x="161.197" y="4079.93" width="22.7955" height="26.718" rx="4" fill="#EAE6E3"/>
</svg>
