<svg width="215" height="2722" viewBox="0 0 215 2722" fill="none" xmlns="http://www.w3.org/2000/svg">
<path d="M58 119.855V1924H145V119.855C145 -39.9516 58 -39.9516 58 119.855Z" fill="#FF3434"/>
<path d="M18 1861H182C182 1840 182 1840 103.672 1840C17.9996 1840 18.0005 1840 18 1861Z" fill="#DCBA33"/>
<path d="M13 2065L190 2065C190 1992.49 190 2000.31 107.687 2000.32C13 2000.32 12.9997 1991.66 13 2065Z" fill="#DCBA33"/>
<rect x="18" y="1861" width="164" height="4" fill="#A78827"/>
<rect x="56" y="1865" width="90" height="17" fill="#DCBA33"/>
<rect x="22" y="1935" width="157" height="71" fill="#DCBA33"/>
<path d="M0 1922.9L57.5394 1882H145.073L202 1920.02V1935H0V1922.9Z" fill="#D3D3D3"/>
<rect x="34" y="1934" width="28" height="106" fill="#E7D381"/>
<rect x="111" y="2082" width="28" height="107" fill="#E7D381"/>
<rect x="22" y="1936" width="157" height="4" fill="#A78827"/>
<rect x="22" y="1952" width="157" height="5" fill="#A78827"/>
<rect x="22" y="1968" width="157" height="5" fill="#A78827"/>
<rect x="22" y="1984" width="157" height="5" fill="#A78827"/>
<rect x="22" y="2000" width="157" height="5" fill="#A78827"/>
<path d="M48 1927.62V1935H80.4175V1927.62L111 1882H80.4175L48 1927.62Z" fill="#EAE6E3"/>
<path d="M70.4893 2030.42C-13.7138 2023.5 8.1505 2103.21 13.6166 2150.58C13.6166 2180.05 25.9783 2511.61 13.3986 2572.84C5.13872 2613.05 23.7235 2641.2 34.0483 2650.25C34.0483 2650.25 51.2565 2711.1 65.0229 2719.57C86.4015 2727.43 97.4147 2714.37 100.249 2706.86H148.229C185.277 2674.52 224.147 2636.39 196.817 2587.29C162.806 2514.51 172.118 2457.7 179.811 2424.97C191.472 2339.94 191.958 2265.34 189.529 2225.67C176.41 2172.06 179.204 2130.94 189.529 2125.16C200.218 2063.23 170.499 2038.9 154.303 2034.47L70.4893 2030.42Z" fill="#CA893F"/>
<mask id="mask0_196_24470" style="mask-type:alpha" maskUnits="userSpaceOnUse" x="6" y="2030" width="201" height="692">
<path d="M69.9924 2030.49C-14.6526 2023.57 7.32646 2103.23 12.8213 2150.57C12.8213 2180.01 25.2479 2511.35 12.6021 2572.54C4.29887 2612.72 22.9812 2640.85 33.3602 2649.9C33.3602 2649.9 50.6587 2710.7 64.4974 2719.17C85.9882 2727.02 97.0592 2713.97 99.9083 2706.47H148.141C185.383 2674.15 224.457 2636.05 196.983 2586.98C162.793 2514.25 172.155 2457.48 179.888 2424.77C191.611 2339.8 192.099 2265.25 189.657 2225.61C176.469 2172.04 179.278 2130.94 189.657 2125.16C200.402 2063.28 170.527 2038.96 154.246 2034.53L69.9924 2030.49Z" fill="#AA733B"/>
</mask>
<g mask="url(#mask0_196_24470)">
<path d="M106.917 2519.44C99.5903 2466.33 120.145 2407.64 131.338 2384.94C131.338 2432.47 130.239 2530.53 125.843 2542.53C121.447 2554.54 127.675 2580.25 131.338 2591.6C136.833 2596.99 140.74 2610.53 112.411 2621.62C84.0824 2632.7 86.0847 2697.24 89.1374 2720.33C78.5548 2739.96 49.2088 2763.97 50.674 2700.7C52.1393 2637.43 84.5303 2603.92 97.7586 2603.15C97.7586 2603.15 75.7058 2535.03 106.917 2519.44Z" fill="#D4B68E"/>
<rect x="129.433" y="2025.88" width="26.8635" height="393.695" fill="#D4B68E"/>
<path d="M125.838 2614.35C211.684 2669.66 152.383 2719.4 110.024 2734.76L95.3403 2711.72C106.824 2701.73 122.449 2659.29 84.0448 2633.94C42.6817 2606.64 33.4034 2638.74 30.956 2659.29L6.10596 2727.85V2603.41C11.5654 2585.74 39.9924 2559.05 125.838 2614.35Z" fill="#AA733B"/>
<ellipse cx="34.1897" cy="2304.12" rx="54.948" ry="204.352" fill="#F4F2EE"/>
<path d="M116.205 2540.22C95.6908 2461.25 161.791 2272.95 197.406 2188.67L215.722 2339.33L193.132 2582.94C176.037 2601.61 136.719 2619.19 116.205 2540.22Z" fill="#F4F2EE"/>
<rect x="131.875" y="2135.56" width="79.3693" height="12.6998" rx="6.34992" fill="#755A2C"/>
<rect x="136.76" y="2160.96" width="79.3693" height="12.6998" rx="6.34992" fill="#755A2C"/>
<rect x="140.423" y="2187.51" width="79.3693" height="12.6998" rx="6.34992" fill="#755A2C"/>
<path d="M102.283 2623.6C40.5282 2576.21 21.0051 2616.04 18.9629 2641.88L8.54785 2629.27C10.7942 2605.32 34.0341 2569.53 109.022 2617.93C184.011 2666.33 157.83 2708.27 135.366 2723.18L123.726 2764.78L112.338 2750.35C122.725 2746.91 91.6764 2710.6 102.283 2703.61C129.214 2685.86 146.588 2657.61 102.283 2623.6Z" fill="#936936"/>
</g>
<ellipse cx="24.3748" cy="32.9741" rx="24.3748" ry="32.9741" transform="matrix(0.983759 -0.179492 0.199968 0.979802 153.854 2054.26)" fill="#EAE6E3"/>
<ellipse cx="16.453" cy="19.6688" rx="16.453" ry="19.6688" transform="matrix(0.983759 -0.179492 0.199968 0.979802 171.754 2062.75)" fill="#CA893F"/>
<ellipse cx="10.3593" cy="10.9914" rx="10.3593" ry="10.9914" transform="matrix(0.983759 -0.179492 0.199968 0.979802 184.9 2066.23)" fill="#755A2C"/>
</svg>
