<svg width="190" height="2713" viewBox="0 0 190 2713" fill="none" xmlns="http://www.w3.org/2000/svg">
<path d="M61 1869L46 1851H143L125.5 1869H61Z" fill="#C4A373"/>
<path d="M49 111.741V1793.75H136V111.741C136 -37.247 49 -37.247 49 111.741Z" fill="#88DA68"/>
<rect width="121" height="58" rx="4" transform="matrix(1 0 0 -1 34 1851)" fill="#EAE6E3"/>
<path d="M0 1785C0 1785 61.1097 1786.15 94.3166 1786.2C128.833 1786.26 190 1785 190 1785L180.432 1807.8L94.3166 1809L8.20144 1807.8L0 1785Z" fill="#595B5D"/>
<path d="M50 1963C50 1963 77.9818 1963.91 93.1871 1963.95C108.992 1963.99 137 1963 137 1963L132.619 1981.05L93.1871 1982L53.7554 1981.05L50 1963Z" fill="#595B5D"/>
<rect x="65" y="1871" width="56" height="45" fill="#C4A373"/>
<circle cx="94" cy="2635" r="70" fill="#F4F2EE"/>
<rect x="67" y="1985" width="56" height="25" fill="#595B5D"/>
<path d="M44 2592.76C44 2594.65 45.3223 2596.27 47.189 2596.56C53.5503 2597.54 69.5686 2599.5 96.5 2599.5C120.361 2599.5 135.604 2597.55 141.814 2596.56C143.68 2596.27 145 2594.65 145 2592.76V2566C145 2563.79 143.209 2562 141 2562H48C45.7909 2562 44 2563.79 44 2566V2592.76Z" fill="#D3D3D3"/>
<rect x="45" y="2028" width="99" height="225" fill="#595B5D"/>
<rect x="45" y="2028" width="99" height="225" fill="#595B5D"/>
<rect width="121" height="324" rx="4" transform="matrix(1 0 0 -1 34 2572)" fill="#EAE6E3"/>
<rect width="121" height="167" rx="4" transform="matrix(1 0 0 -1 34 2447)" fill="#F4F2EE"/>
<circle cx="128.498" cy="2423.5" r="11" transform="rotate(139.938 128.498 2423.5)" fill="#EAE6E3"/>
<rect x="40" y="1915" width="109" height="45" rx="4" fill="#C4A373"/>
<rect width="121" height="10" rx="4" transform="matrix(1 0 0 -1 33 1967)" fill="#EAE6E3"/>
<rect width="116" height="12" rx="4" transform="matrix(1 0 0 -1 37 2059)" fill="#EAE6E3"/>
<rect width="116" height="12" rx="4" transform="matrix(1 0 0 -1 37 2084)" fill="#EAE6E3"/>
<rect width="116" height="12" rx="4" transform="matrix(1 0 0 -1 37 2109)" fill="#EAE6E3"/>
<rect width="116" height="12" rx="4" transform="matrix(1 0 0 -1 37 2134)" fill="#EAE6E3"/>
<rect width="116" height="12" rx="4" transform="matrix(1 0 0 -1 37 2159)" fill="#EAE6E3"/>
<rect width="116" height="12" rx="4" transform="matrix(1 0 0 -1 37 2184)" fill="#EAE6E3"/>
<rect width="116" height="12" rx="4" transform="matrix(1 0 0 -1 37 2209)" fill="#EAE6E3"/>
<rect width="116" height="12" rx="4" transform="matrix(1 0 0 -1 37 2234)" fill="#EAE6E3"/>
<path d="M37 2033H94.5827H153C153 2006.5 138.307 2003.44 94.5827 2003C56.5 2002.62 37 2006.5 37 2033Z" fill="#EAE6E3"/>
<rect x="74" y="1852" width="12" height="17" fill="#D4B68E"/>
<path d="M61 1869H126V1872C126 1872.55 125.552 1873 125 1873H62C61.4477 1873 61 1872.55 61 1872V1869Z" fill="#595B5D"/>
<rect x="65" y="1894" width="56" height="4" fill="#595B5D"/>
<rect x="67" y="1981" width="56" height="4" fill="#A9A9A7"/>
<rect x="65" y="1911" width="56" height="4" fill="#595B5D"/>
<rect x="70" y="1873" width="12" height="21" fill="#D4B68E"/>
<rect x="74" y="1898" width="12" height="13" fill="#D4B68E"/>
<rect x="58" y="1915" width="15" height="42" fill="#D4B68E"/>
<rect x="58" y="1809" width="15" height="42" fill="#F4F2EE"/>
<rect x="58" y="2248" width="15" height="324" fill="#F4F2EE"/>
<rect x="58" y="2222" width="15" height="12" fill="#F4F2EE"/>
<rect x="34" y="2368" width="121" height="4" fill="#A9A9A7"/>
<rect x="58" y="2197" width="15" height="12" fill="#F4F2EE"/>
<rect width="46" height="116" rx="4" transform="matrix(1 0 0 -1 138 2412)" fill="#EAE6E3"/>
<rect x="58" y="2197" width="15" height="12" fill="#F4F2EE"/>
<rect x="58" y="2172" width="15" height="12" fill="#F4F2EE"/>
<rect x="58" y="2147" width="15" height="12" fill="#F4F2EE"/>
<rect x="58" y="2122" width="15" height="12" fill="#F4F2EE"/>
<rect x="58" y="2097" width="15" height="12" fill="#F4F2EE"/>
<rect x="58" y="2072" width="15" height="12" fill="#F4F2EE"/>
<rect x="58" y="2047" width="15" height="12" fill="#F4F2EE"/>
<path d="M58 2005.5C64 2004 66.5 2003.5 73 2003.5V2033H58V2005.5Z" fill="#F4F2EE"/>
<rect x="156" y="2305" width="28" height="9" fill="#595B5D"/>
<rect x="156" y="2314" width="28" height="9" fill="#DEB835"/>
<rect x="156" y="2323" width="28" height="9" fill="#595B5D"/>
<rect x="156" y="2332" width="28" height="9" fill="#DEB835"/>
<rect x="156" y="2341" width="28" height="9" fill="#595B5D"/>
<rect x="156" y="2350" width="28" height="9" fill="#DEB835"/>
<rect x="156" y="2359" width="28" height="9" fill="#595B5D"/>
<rect x="156" y="2368" width="28" height="9" fill="#DEB835"/>
<rect x="156" y="2377" width="28" height="9" fill="#595B5D"/>
<rect x="156" y="2395" width="28" height="9" fill="#595B5D"/>
<rect x="156" y="2386" width="28" height="9" fill="#DEB835"/>
<path d="M28.5 2612C28.5 2612 67.7883 2617.5 94 2617.5C120.212 2617.5 159.5 2612 159.5 2612L161 2616C161 2616 120.201 2621 94 2621C67.7992 2621 27 2616 27 2616L28.5 2612Z" fill="#9A9A9A"/>
<path d="M28.5 2612C28.5 2612 67.7883 2617.5 94 2617.5C120.212 2617.5 159.5 2612 159.5 2612L161 2616C161 2616 120.201 2621 94 2621C67.7992 2621 27 2616 27 2616L28.5 2612Z" fill="#9A9A9A"/>
<path d="M30 2664.5C30 2664.5 67.7883 2669.5 94 2669.5C120.212 2669.5 157.5 2664.5 157.5 2664.5L156 2668C156 2668 120.201 2673 94 2673C67.7992 2673 32 2668.5 32 2668.5L30 2664.5Z" fill="#9A9A9A"/>
<path d="M30 2664.5C30 2664.5 67.7883 2669.5 94 2669.5C120.212 2669.5 157.5 2664.5 157.5 2664.5L156 2668C156 2668 120.201 2673 94 2673C67.7992 2673 32 2668.5 32 2668.5L30 2664.5Z" fill="#9A9A9A"/>
<path d="M82.4375 2640H127.937C128.776 2643.81 128.969 2646.23 127.937 2650H91.4376C85.4376 2670 92.5612 2708 123.499 2704.5C157.061 2706.5 168.999 2670.5 168.999 2650H161.999C163.499 2646 162.999 2646.5 163.938 2640H174.999C176.999 2663.5 171.499 2707.5 124.937 2713C77.9993 2710 78 2666 82.4375 2640Z" fill="#C4A373"/>
</svg>
