<svg width="184" height="2729" viewBox="0 0 184 2729" fill="none" xmlns="http://www.w3.org/2000/svg">
<path d="M48 111.741V1793.75H135V111.741C135 -37.247 48 -37.247 48 111.741Z" fill="#519EBF"/>
<rect width="116" height="56" rx="8" transform="matrix(1 0 0 -1 40 2729)" fill="#D3D3D3"/>
<rect x="96" y="2676" width="26" height="53" fill="#EAE6E3"/>
<path d="M166 2637H177C179.209 2637 181 2638.79 181 2641V2681C181 2683.21 179.209 2685 177 2685H166V2637Z" fill="#D3D3D3"/>
<rect y="2301" width="38" height="175" rx="4" fill="#EAE6E3"/>
<path d="M13 2643C13 2640.79 14.7909 2639 17 2639H30V2687H17C14.7909 2687 13 2685.21 13 2683V2643Z" fill="#D3D3D3"/>
<ellipse cx="96.5" cy="2661" rx="75.5" ry="57" fill="#EAE6E3"/>
<path d="M44 1943C44 1945.21 45.7909 1947 48 1947H148C150.209 1947 152 1945.21 152 1943V1923C152 1920.79 150.209 1919 148 1919H48C45.7909 1919 44 1920.79 44 1923V1943Z" fill="#DCBA33"/>
<path d="M67 1990C67 1992.21 68.7909 1994 71 1994H120C122.209 1994 124 1992.21 124 1990V1971C124 1968.79 122.209 1967 120 1967H71C68.7909 1967 67 1968.79 67 1971V1990Z" fill="#DCBA33"/>
<path d="M77 2045C77 2047.21 78.7909 2049 81 2049H115C117.209 2049 119 2047.21 119 2045V2000C119 1997.79 117.209 1996 115 1996H81C78.7909 1996 77 1997.79 77 2000V2045Z" fill="#DCBA33"/>
<rect width="116" height="56" rx="8" transform="matrix(1 0 0 -1 40 2625)" fill="#D3D3D3"/>
<rect x="96" y="2572" width="26" height="53" fill="#EAE6E3"/>
<rect x="130" y="2625" width="26" height="78" fill="#EAE6E3"/>
<path d="M53 2274C53 2276.21 54.7909 2278 57 2278H139C141.209 2278 143 2276.21 143 2274V2063C143 2060.79 141.209 2059 139 2059H57C54.7909 2059 53 2060.79 53 2063V2274Z" fill="#595B5D"/>
<path d="M39.415 1969.35C38.859 1970 39.3199 1971 40.1742 1971H153.707C154.58 1971 155.034 1969.96 154.44 1969.32L143.297 1957.32C143.108 1957.12 142.842 1957 142.564 1957H50.4599C50.168 1957 49.8907 1957.13 49.7007 1957.35L39.415 1969.35Z" fill="#DCBA33"/>
<rect width="122" height="57.9228" rx="8" transform="matrix(1 0 0 -1 34 1835.06)" fill="#D3D3D3"/>
<rect width="129" height="203.695" rx="8" transform="matrix(1 0 0 -1 35 2490.55)" fill="#D3D3D3"/>
<path d="M50 1863.88C50 1866.09 51.7909 1867.88 54 1867.88H135C137.209 1867.88 139 1866.09 139 1863.88V1842.78H50V1863.88Z" fill="#D3D3D3"/>
<path d="M74 1904.43C74 1906.64 75.7909 1908.43 78 1908.43H113C115.209 1908.43 117 1906.64 117 1904.43V1880.43H74V1904.43Z" fill="#AA733B"/>
<path d="M67 1891.88C67 1894.09 68.7909 1895.88 71 1895.88H120C122.209 1895.88 124 1894.09 124 1891.88V1867.88H67V1891.88Z" fill="#C4A373"/>
<path d="M67 1907.6C67 1905.39 68.7909 1903.6 71 1903.6H120C122.209 1903.6 124 1905.39 124 1907.6V1919.05H67V1907.6Z" fill="#C4A373"/>
<rect width="162" height="7.72305" rx="2" transform="matrix(1 0 0 -1 14 1777.13)" fill="#7E7E7E"/>
<rect width="93" height="13.5153" rx="2" transform="matrix(1 0 0 -1 50 1957.66)" fill="#A78827"/>
<path d="M32.7044 1786.33C32.8887 1786.62 33.2047 1786.79 33.5439 1786.79H156.456C156.795 1786.79 157.111 1786.62 157.296 1786.33L161.001 1780.61C161.432 1779.94 160.954 1779.07 160.161 1779.07H29.8387C29.0461 1779.07 28.5685 1779.94 28.9993 1780.61L32.7044 1786.33Z" fill="#7E7E7E"/>
<path d="M47.4221 1842.21C47.5883 1842.56 47.9391 1842.78 48.3242 1842.78H138.676C139.061 1842.78 139.412 1842.56 139.578 1842.21L142.315 1836.49C142.633 1835.82 142.149 1835.06 141.413 1835.06H45.5868C44.8511 1835.06 44.3672 1835.82 44.6847 1836.49L47.4221 1842.21Z" fill="#7E7E7E"/>
<rect width="152" height="4.8269" rx="2.41345" transform="matrix(1 0 0 -1 18 1781)" fill="#EAE6E3"/>
<path d="M6 1759.1C6 1755.75 8.72234 1753.05 12.0753 1753.1C27.6271 1753.35 69.4041 1753.98 94.3597 1754.01C120.303 1754.05 162.315 1753.38 177.915 1753.11C181.272 1753.05 184 1755.75 184 1759.11V1766.33C184 1769.61 181.355 1772.29 178.068 1772.33L94.3597 1773.27L11.9312 1772.33C8.64453 1772.29 6 1769.61 6 1766.33V1759.1Z" fill="#D3D3D3"/>
<rect x="31" y="1754.93" width="26" height="16.4115" fill="#EAE6E3"/>
<rect x="82" y="1786.79" width="26" height="48.269" fill="#EAE6E3"/>
<rect x="82" y="1842.78" width="26" height="25.0999" fill="#EAE6E3"/>
<rect y="2303.27" width="26" height="8.68843" fill="#595B5D"/>
<rect y="2311.96" width="26" height="8.68843" fill="#DEB835"/>
<rect y="2320.64" width="26" height="8.68843" fill="#595B5D"/>
<rect y="2329.33" width="26" height="8.68843" fill="#DEB835"/>
<rect y="2338.02" width="26" height="8.68843" fill="#595B5D"/>
<rect y="2346.71" width="26" height="8.68843" fill="#DEB835"/>
<rect y="2355.4" width="26" height="8.68843" fill="#595B5D"/>
<rect y="2364.09" width="26" height="8.68843" fill="#DEB835"/>
<rect y="2372.77" width="26" height="8.68843" fill="#595B5D"/>
<rect y="2390.15" width="26" height="8.68843" fill="#595B5D"/>
<rect y="2381.46" width="26" height="8.68843" fill="#DEB835"/>
<rect y="2372.77" width="26" height="8.68843" fill="#595B5D"/>
<rect y="2381.46" width="26" height="8.68843" fill="#DEB835"/>
<rect y="2390.15" width="26" height="8.68843" fill="#595B5D"/>
<rect y="2398.84" width="26" height="8.68843" fill="#DEB835"/>
<rect y="2407.53" width="26" height="8.68843" fill="#595B5D"/>
<rect y="2416.22" width="26" height="8.68843" fill="#DEB835"/>
<rect y="2424.91" width="26" height="8.68843" fill="#595B5D"/>
<rect y="2433.59" width="26" height="8.68843" fill="#DEB835"/>
<rect y="2442.28" width="26" height="8.68843" fill="#595B5D"/>
<rect y="2459.66" width="26" height="8.68843" fill="#595B5D"/>
<rect y="2450.97" width="26" height="8.68843" fill="#DEB835"/>
<rect width="26" height="14" transform="matrix(1 0 0 -1 61 1971)" fill="#E7D381"/>
<path d="M35 2593C35 2595.21 36.7909 2597 39 2597H160C162.209 2597 164 2595.21 164 2593V2479H35V2593Z" fill="#595B5D"/>
<rect width="48" height="4" transform="matrix(1 0 0 -1 73 1998)" fill="#CBB764"/>
<rect width="48" height="4" transform="matrix(1 0 0 -1 73 2002)" fill="#A78827"/>
<rect width="19" height="23" transform="matrix(1 0 0 -1 96 1994)" fill="#E7D381"/>
<rect width="19" height="47" transform="matrix(1 0 0 -1 96 2049)" fill="#E7D381"/>
<rect width="26" height="28" transform="matrix(1 0 0 -1 61 1947)" fill="#E7D381"/>
<path d="M32.0663 2056.81C30.3203 2059.47 32.2285 2063 35.4103 2063H162.247C165.497 2063 167.39 2059.33 165.507 2056.68L155.552 2042.68C154.802 2041.63 153.587 2041 152.292 2041H44.5998C43.2523 2041 41.9953 2041.68 41.2559 2042.81L32.0663 2056.81Z" fill="#595B5D"/>
<path d="M33.8714 2294.37C33.4424 2295.67 34.4062 2297 35.7699 2297H161.754C164.672 2297 166.608 2293.98 165.387 2291.33L158.94 2277.33C158.287 2275.91 156.868 2275 155.306 2275H43.18C41.4557 2275 39.9256 2276.1 39.3831 2277.74L33.8714 2294.37Z" fill="#595B5D"/>
<rect x="105" y="2074.47" width="54" height="17.3769" rx="4" fill="#38373A"/>
<rect x="105" y="2098.61" width="54" height="17.3769" rx="4" fill="#38373A"/>
<rect x="105" y="2122.74" width="54" height="17.3769" rx="4" fill="#38373A"/>
<rect x="105" y="2146.88" width="54" height="17.3769" rx="4" fill="#38373A"/>
<rect x="105" y="2171.01" width="54" height="17.3769" rx="4" fill="#38373A"/>
<rect x="105" y="2195.14" width="54" height="17.3769" rx="4" fill="#38373A"/>
<rect x="105" y="2219.28" width="54" height="17.3769" rx="4" fill="#38373A"/>
<rect x="105" y="2243.41" width="54" height="17.3769" rx="4" fill="#38373A"/>
<rect x="38" y="2074.47" width="54" height="17.3769" rx="4" fill="#38373A"/>
<rect x="38" y="2098.61" width="54" height="17.3769" rx="4" fill="#38373A"/>
<rect x="38" y="2122.74" width="54" height="17.3769" rx="4" fill="#38373A"/>
<rect x="38" y="2146.88" width="54" height="17.3769" rx="4" fill="#38373A"/>
<rect x="38" y="2171.01" width="54" height="17.3769" rx="4" fill="#38373A"/>
<rect x="38" y="2195.14" width="54" height="17.3769" rx="4" fill="#38373A"/>
<rect x="38" y="2219.28" width="54" height="17.3769" rx="4" fill="#38373A"/>
<rect x="38" y="2243.41" width="54" height="17.3769" rx="4" fill="#38373A"/>
<rect x="96" y="2301" width="26" height="175" fill="#EAE6E3"/>
<rect x="65" y="2644" width="67" height="47" rx="4" fill="#D3D3D3"/>
</svg>
