<svg width="166" height="2737" viewBox="0 0 166 2737" fill="none" xmlns="http://www.w3.org/2000/svg">
<path d="M39 111.741V1793.75H126V111.741C126 -37.247 39 -37.247 39 111.741Z" fill="#88DA68"/>
<path d="M0 1779H83H166V1788.5L157.5 1798H7.5L0 1788.5V1779Z" fill="#A9A9A7"/>
<path d="M26.945 1820L8 1798H157L139.079 1820H26.945Z" fill="#1F201D"/>
<path d="M29.5 1952L1 1902H162.5L137 1952H29.5Z" fill="#1F201D"/>
<rect x="1" y="1857" width="162" height="45" fill="#1F201D"/>
<rect x="27" y="1814" width="113" height="88" fill="#1F201D"/>
<rect x="32" y="1967" width="107" height="695" fill="#A9A9A7"/>
<path d="M138.5 1977V1957V1952H27.5V1986H32V1992.5H27.5V2011.5H32V2018H27.5V2027.5H32V2034H27.5V2044H32V2050H27.5V2060H32V2066H27.5V2076H32V2082H27.5V2091.5H31.5V2155H93L118 2169V2088.5C105.6 2085.7 100.833 2117.67 100 2134H89.5001V2069.5C89.5001 2048.5 97.5001 2031.5 114.5 2013.5C128.1 1999.1 138.5 1984 138.5 1977Z" fill="#1F201D"/>
<rect x="27" y="1948" width="112" height="4" fill="#575C5F"/>
<rect x="27" y="1854" width="113" height="4" fill="#575C5F"/>
<path d="M1 1902H162.812L160.5 1906H3.25L1 1902Z" fill="#575C5F"/>
<mask id="mask0_196_24471" style="mask-type:alpha" maskUnits="userSpaceOnUse" x="26" y="1952" width="111" height="217">
<path d="M137 1977V1957V1952H26V1986H30.5V1998.5H26V2008H30.5V2013.5H26V2023.5H30.5V2029.5H26V2042H30.5V2049.5H26V2060.5H30.5V2065.5H26V2074H30.5V2082H26V2093.5H30.5L32 2155H91.5L116.5 2169V2088.5C104.1 2085.7 99.3333 2117.67 98.5 2134H88.0001V2069.5C88.0001 2048.5 96.0001 2031.5 113 2013.5C126.6 1999.1 137 1984 137 1977Z" fill="#1F201D"/>
</mask>
<g mask="url(#mask0_196_24471)">
<rect x="32" y="2012" width="96" height="6" fill="#575C5F"/>
<rect x="32" y="2028" width="96" height="6" fill="#575C5F"/>
<rect x="32" y="2044" width="96" height="6" fill="#575C5F"/>
<rect x="32" y="2060" width="96" height="6" fill="#575C5F"/>
<rect x="31" y="2076" width="96" height="6" fill="#575C5F"/>
<rect x="32" y="2092" width="60" height="6" fill="#575C5F"/>
</g>
<circle cx="47" cy="2120" r="16" fill="#B84C63"/>
<path d="M118 2173V2199.5L93.5 2186.81H30.4513C26.9702 2186.81 21.0005 2185.29 21 2182.26V2164.09C21 2160.55 26.8034 2158.7 30.4513 2159.04H93.5L118 2173Z" fill="#1F201D"/>
<path d="M118 2205V2231.5L93.5 2218.81H30.4513C26.9702 2218.81 21.0005 2217.29 21 2214.26V2196.09C21 2192.55 26.8034 2190.7 30.4513 2191.04H93.5L118 2205Z" fill="#1F201D"/>
<path d="M118 2237V2263.5L93.5 2250.81H30.4513C26.9702 2250.81 21.0005 2249.29 21 2246.26V2228.09C21 2224.55 26.8034 2222.7 30.4513 2223.04H93.5L118 2237Z" fill="#1F201D"/>
<path d="M118 2269V2295.5L93.5 2282.81H30.4513C26.9702 2282.81 21.0005 2281.29 21 2278.26V2260.09C21 2256.55 26.8034 2254.7 30.4513 2255.04H93.5L118 2269Z" fill="#1F201D"/>
<path d="M118 2301V2327.5L93.5 2314.81H30.4513C26.9702 2314.81 21.0005 2313.29 21 2310.26V2292.09C21 2288.55 26.8034 2286.7 30.4513 2287.04H93.5L118 2301Z" fill="#1F201D"/>
<path d="M118 2333V2359.5L93.5 2346.81H30.4513C26.9702 2346.81 21.0005 2345.29 21 2342.26V2324.09C21 2320.55 26.8034 2318.7 30.4513 2319.04H93.5L118 2333Z" fill="#1F201D"/>
<path d="M118 2365V2391.5L93.5 2378.81H30.4513C26.9702 2378.81 21.0005 2377.29 21 2374.26V2356.09C21 2352.55 26.8034 2350.7 30.4513 2351.04H93.5L118 2365Z" fill="#1F201D"/>
<path d="M118 2397V2423.5L93.5 2410.81H30.4513C26.9702 2410.81 21.0005 2409.29 21 2406.26V2388.09C21 2384.55 26.8034 2382.7 30.4513 2383.04H93.5L118 2397Z" fill="#1F201D"/>
<path d="M118 2429V2455.5L93.5 2442.81H30.4513C26.9702 2442.81 21.0005 2441.29 21 2438.26V2420.09C21 2416.55 26.8034 2414.7 30.4513 2415.04H93.5L118 2429Z" fill="#1F201D"/>
<path d="M118 2461V2487.5L93.5 2474.81H30.4513C26.9702 2474.81 21.0005 2473.29 21 2470.26V2452.09C21 2448.55 26.8034 2446.7 30.4513 2447.04H93.5L118 2461Z" fill="#1F201D"/>
<path d="M118 2493V2519.5L93.5 2506.81H30.4513C26.9702 2506.81 21.0005 2505.29 21 2502.26V2484.09C21 2480.55 26.8034 2478.7 30.4513 2479.04H93.5L118 2493Z" fill="#1F201D"/>
<path d="M118 2525V2551.5L93.5 2538.81H30.4513C26.9702 2538.81 21.0005 2537.29 21 2534.26V2516.09C21 2512.55 26.8034 2510.7 30.4513 2511.04H93.5L118 2525Z" fill="#1F201D"/>
<path d="M118 2557V2583.5L93.5 2570.81H30.4513C26.9702 2570.81 21.0005 2569.29 21 2566.26V2548.09C21 2544.55 26.8034 2542.7 30.4513 2543.04H93.5L118 2557Z" fill="#1F201D"/>
<path d="M118 2589V2615.5L93.5 2602.81H30.4513C26.9702 2602.81 21.0005 2601.29 21 2598.26V2580.09C21 2576.55 26.8034 2574.7 30.4513 2575.04H93.5L118 2589Z" fill="#1F201D"/>
<path d="M118 2621V2647.5L93.5 2634.81H30.4513C26.9702 2634.81 21.0005 2633.29 21 2630.26V2612.09C21 2608.55 26.8034 2606.7 30.4513 2607.04H93.5L118 2621Z" fill="#1F201D"/>
<rect x="19" y="2672" width="120" height="65" rx="24" fill="#1F201D"/>
<path d="M121.729 2616C121.729 2646.26 29.6479 2643.74 21 2622.56V2669.96C51.0152 2689.13 113.563 2693.65 139 2669.44V2616H121.729Z" fill="#A9A9A7"/>
<rect x="117" y="1858" width="11" height="44" fill="#C1BBB8"/>
<rect x="83" y="2159" width="4" height="28" fill="#C1BBB8"/>
<rect x="83" y="2195" width="4" height="16" fill="#C1BBB8"/>
<rect x="83" y="2232" width="4" height="16" fill="#C1BBB8"/>
<rect x="83" y="2264" width="4" height="155" fill="#C1BBB8"/>
</svg>
