<svg width="183" height="2824" viewBox="0 0 183 2824" fill="none" xmlns="http://www.w3.org/2000/svg">
<path d="M42.2103 118.646V1873.6H131.779V118.646C131.779 -36.8033 42.2103 -36.8033 42.2103 118.646Z" fill="#FCDB00"/>
<path d="M9.26562 2046.69C17.3962 1997.2 33.9623 1897.45 35.1819 1894.32H141.896L167.812 2046.69H9.26562Z" fill="#555F69"/>
<path d="M11.3247 2381.29C11.3247 2381.29 31.1673 2469.02 32.3564 2470.86H151.855L171.93 2381.29H11.3247Z" fill="#555F69"/>
<path d="M14.15 2517.61C13.9997 2516.74 14.4192 2515.86 15.1927 2515.42L22.1764 2511.45C23.4327 2510.73 24.9839 2511.48 25.1864 2512.9L38.0546 2603.15C38.3251 2605.05 36.0934 2606.31 34.6636 2605.06L28.8506 2600.01C28.5018 2599.71 28.2684 2599.29 28.1888 2598.83L14.15 2517.61Z" fill="#484C52"/>
<path d="M167.799 2511.44C167.95 2510.57 167.53 2509.69 166.757 2509.25L159.773 2505.27C158.517 2504.56 156.965 2505.31 156.763 2506.73L143.895 2596.98C143.624 2598.88 145.856 2600.14 147.286 2598.89L153.099 2593.84C153.448 2593.54 153.681 2593.12 153.76 2592.66L167.799 2511.44Z" fill="#484C52"/>
<path d="M17.5018 2498.65C17.5018 2498.65 40.6209 2629.59 41.6956 2631.46H141.063L162.665 2498.65H17.5018Z" fill="#555F69"/>
<circle cx="44.2694" cy="2599.55" r="8.23619" fill="#484C52"/>
<path d="M165.753 1874.76C165.753 1892.96 151.003 1907.71 132.808 1907.71L86.4798 1907.71L42.2102 1907.71C24.0154 1907.71 9.26554 1892.96 9.26554 1874.76L9.26554 1839.76L165.753 1839.76L165.753 1874.76Z" fill="#555F69"/>
<rect x="12.3541" y="1842.85" width="152.369" height="45.299" fill="#555F69"/>
<rect x="44.2694" y="1846.96" width="25.7381" height="36.0333" fill="#7E7E7E"/>
<path d="M47.358 1888.15H72.5813L79.2732 1906.68H53.5352L47.358 1888.15Z" fill="#7E7E7E"/>
<path fill-rule="evenodd" clip-rule="evenodd" d="M86.9947 1794.46H80.3028L53.5352 1839.76H86.9947V1794.46ZM81.847 1808.87H77.2141L69.4927 1824.31H81.847V1808.87Z" fill="#555F69"/>
<path fill-rule="evenodd" clip-rule="evenodd" d="M86.9946 1794.46H93.6865L120.454 1839.76H86.9946V1794.46ZM92.1423 1808.87H96.7751L104.497 1824.31H92.1423V1808.87Z" fill="#555F69"/>
<path fill-rule="evenodd" clip-rule="evenodd" d="M128.448 1794.46H122.15L116.336 1839.76H141.045L128.448 1794.46ZM130.386 1807.72H126.026L124.572 1824.29H134.262L130.386 1807.72Z" fill="#555F69"/>
<path fill-rule="evenodd" clip-rule="evenodd" d="M128.448 1794.46H135.231L165.753 1839.76H141.044L128.448 1794.46ZM135.715 1807.16H140.076L150.734 1824.29H142.013L135.715 1807.16Z" fill="#555F69"/>
<path fill-rule="evenodd" clip-rule="evenodd" d="M46.5707 1794.46H52.869L58.6827 1839.76H33.9742L46.5707 1794.46ZM44.6327 1807.72H48.9931L50.4465 1824.29H40.7569L44.6327 1807.72Z" fill="#555F69"/>
<path fill-rule="evenodd" clip-rule="evenodd" d="M46.5707 1794.46H39.788L9.26562 1839.76H33.9742L46.5707 1794.46ZM39.3035 1807.16H34.9432L24.2846 1824.29H33.0052L39.3035 1807.16Z" fill="#555F69"/>
<rect x="31.915" y="1906.68" width="113.248" height="4.11809" fill="#484C52"/>
<rect x="12.3541" y="1883" width="155.458" height="4.11809" fill="#484C52"/>
<rect x="10.2952" y="1842.85" width="155.458" height="4.11809" fill="#484C52"/>
<path d="M156.488 2133.8C156.488 2140.9 26.2315 2138.65 20.5905 2133.8C20.5902 2119.63 36.4878 2086.84 36.4878 2086.84H141.616C141.616 2086.84 156.488 2113.96 156.488 2133.8Z" fill="#555F69"/>
<path d="M10.2952 2381.8C10.2952 2365.2 30.089 2350.4 30.089 2350.4H150.591C150.591 2350.4 169.871 2365.42 169.871 2381.8C169.871 2396.96 150.591 2413.2 150.591 2413.2H30.089C30.089 2413.2 10.2952 2392.63 10.2952 2381.8Z" fill="#555F69"/>
<circle cx="116.336" cy="2116.7" r="12.3543" fill="#484C52"/>
<rect x="58.6827" y="1910.79" width="25.7381" height="218.259" fill="#7E7E7E"/>
<path d="M25.5293 2443.06H158.755L160.606 2434.82H23.679L25.5293 2443.06Z" fill="#484C52"/>
<path d="M10.2952 2380.26H169.871V2376.14H10.2952V2380.26Z" fill="#484C52"/>
<rect x="56.6237" y="2381.29" width="25.7381" height="53.5352" fill="#7E7E7E"/>
<path d="M61.2565 2349.37H85.4503L82.3617 2376.14H56.6237L61.2565 2349.37Z" fill="#7E7E7E"/>
<rect x="56.6237" y="2442.03" width="25.7381" height="39.1219" fill="#7E7E7E"/>
<rect x="93.6864" y="2447.21" width="14.4133" height="4.11809" rx="2.05905" transform="rotate(90 93.6864 2447.21)" fill="#484C52"/>
<rect width="14.3736" height="4.05086" rx="2.02543" transform="matrix(-0.0233647 0.999727 -0.999915 -0.0130355 112.218 2447.23)" fill="#484C52"/>
<rect width="14.3736" height="4.05086" rx="2.02543" transform="matrix(-0.0233647 0.999727 -0.999915 -0.0130355 75.1549 2447.23)" fill="#484C52"/>
<rect width="14.3736" height="4.05086" rx="2.02543" transform="matrix(-0.0233647 0.999727 -0.999915 -0.0130355 56.6235 2447.23)" fill="#484C52"/>
<rect width="14.3736" height="4.05086" rx="2.02543" transform="matrix(-0.0233647 0.999727 -0.999915 -0.0130355 38.3607 2447.25)" fill="#484C52"/>
<rect width="14.3736" height="4.05086" rx="2.02543" transform="matrix(-0.0233647 0.999727 -0.999915 -0.0130355 130.749 2447.23)" fill="#484C52"/>
<rect width="14.3736" height="4.05086" rx="2.02543" transform="matrix(-0.0233647 0.999727 -0.999915 -0.0130355 149.281 2447.23)" fill="#484C52"/>
<rect x="56.6237" y="2434.82" width="25.7381" height="8.23619" fill="#555F69"/>
<rect x="56.6237" y="2529.54" width="25.7381" height="101.923" fill="#7E7E7E"/>
<rect x="56.6237" y="2493.5" width="25.7381" height="25.7381" fill="#7E7E7E"/>
<rect x="23.679" y="2046.69" width="133.838" height="40.1514" fill="#484C52"/>
<rect x="46.3285" y="2055.96" width="37.0628" height="25.7381" fill="#555F69"/>
<rect x="97.8047" y="2055.96" width="37.0628" height="25.7381" fill="#555F69"/>
<rect x="145.163" y="2055.96" width="24.7086" height="25.7381" fill="#555F69"/>
<rect x="12.3541" y="2056.99" width="24.7086" height="24.7086" fill="#555F69"/>
<mask id="mask0_1_743" style="mask-type:alpha" maskUnits="userSpaceOnUse" x="23" y="2126" width="133" height="225">
<path d="M25.7714 2126.99L152.892 2128.13C155.476 2128.13 155.992 2146.27 153.408 2152.51C155.476 2161.58 156.509 2165.55 153.925 2177.46C155.476 2188.8 154.959 2189.37 152.892 2202.41C154.959 2211.48 155.992 2217.15 153.408 2228.49C155.992 2235.86 155.992 2240.97 153.925 2252.87C156.509 2259.68 154.959 2271.59 153.408 2277.26C155.476 2284.63 155.475 2293.7 152.83 2302.77C154.897 2314.11 154.897 2316.95 152.83 2327.72C154.38 2335.66 155.28 2338.75 152.83 2350.4H31.9108C29.3273 2341.9 28.8715 2335.09 31.9108 2327.15C28.3547 2316.95 27.3212 2312.41 30.9384 2302.2C28.3549 2292 27.8381 2287.46 30.9384 2277.26C27.3212 2269.32 27.3211 2256.84 29.9049 2252.31C26.2878 2244.94 25.7711 2233.59 28.8715 2227.92C25.2544 2221.69 24.7376 2209.78 27.8381 2202.98C25.2544 2198.44 23.7042 2184.83 26.8047 2178.03C24.2209 2167.25 24.2211 2158.75 26.8048 2153.08C23.7045 2144.57 22.1544 2134.93 25.7714 2126.99Z" fill="#D9D9D9"/>
</mask>
<g mask="url(#mask0_1_743)">
<rect x="19.5608" y="2327.75" width="136.927" height="23.679" fill="#DAD4C8" stroke="#C1BBAF" stroke-width="2.05905"/>
<rect x="19.5608" y="2302.01" width="136.927" height="24.7086" fill="#DAD4C8" stroke="#C1BBAF" stroke-width="2.05905"/>
<rect x="19.5608" y="2278.33" width="136.927" height="24.7086" fill="#C0AC94" stroke="#A28E75" stroke-width="2.05905"/>
<rect x="19.5608" y="2253.63" width="136.927" height="24.7086" fill="#C0AC94" stroke="#A28E75" stroke-width="2.05905"/>
<rect x="19.5608" y="2228.92" width="136.927" height="24.7086" fill="#C0AC94" stroke="#A28E75" stroke-width="2.05905"/>
<rect x="19.5608" y="2204.21" width="136.927" height="24.7086" fill="#5D4342" stroke="#452926" stroke-width="2.05905"/>
<rect x="19.5608" y="2180.53" width="136.927" height="24.7086" fill="#5D4342" stroke="#452926" stroke-width="2.05905"/>
<rect x="19.5608" y="2155.82" width="136.927" height="24.7086" fill="#DAD4C8" stroke="#C1BBAF" stroke-width="2.05905"/>
<rect x="19.5608" y="2131.11" width="136.927" height="24.7086" fill="#DAD4C8" stroke="#C1BBAF" stroke-width="2.05905"/>
</g>
<path d="M21.6199 2519.24H158.546L155.08 2540.86H25.5197L21.6199 2519.24Z" fill="#484C52"/>
<rect x="26.7676" y="2521.5" width="14.0753" height="19.1346" rx="2.05905" transform="rotate(-1.51146 26.7676 2521.5)" fill="#595B5D"/>
<rect width="9.27775" height="98.6226" rx="2.05905" transform="matrix(0.995162 -0.0982472 0.0720141 0.997404 35.5874 2504.71)" fill="#484C52"/>
<rect width="9.27505" height="98.6437" rx="2.05905" transform="matrix(0.996246 -0.0865721 0.0634245 0.997987 30.8856 2504.88)" fill="#555F69"/>
<rect width="9.27962" height="100.652" rx="2.05905" transform="matrix(-0.994961 -0.10026 -0.0705618 0.997507 140.907 2503.7)" fill="#484C52"/>
<circle cx="131.779" cy="2600.58" r="8.23619" fill="#484C52"/>
<rect width="9.2765" height="100.676" rx="2.05905" transform="matrix(-0.99609 -0.0883493 -0.062144 0.998067 145.609 2503.88)" fill="#555F69"/>
<rect x="81.3323" y="2504.04" width="9.26571" height="101.923" rx="2.05905" transform="rotate(-1.51146 81.3323 2504.04)" fill="#484C52"/>
<circle cx="87.5094" cy="2600.58" r="8.23619" fill="#484C52"/>
<rect x="80.3027" y="2504.04" width="9.26571" height="101.923" rx="2.05905" transform="rotate(-1.51146 80.3027 2504.04)" fill="#555F69"/>
<rect x="57.7065" y="2521.5" width="14.0753" height="19.1346" rx="2.05905" transform="rotate(-1.51146 57.7065 2521.5)" fill="#595B5D"/>
<rect x="107.07" y="2521.5" width="14.0753" height="19.1346" rx="2.05905" transform="rotate(-1.51146 107.07 2521.5)" fill="#595B5D"/>
<path d="M151.396 2523.79C151.365 2522.63 152.295 2521.67 153.454 2521.67L156.192 2521.67C157.438 2521.67 158.399 2522.77 158.232 2524.01L156.213 2539.02C156.075 2540.04 155.203 2540.8 154.172 2540.8L153.85 2540.8C152.734 2540.8 151.821 2539.91 151.792 2538.8L151.396 2523.79Z" fill="#595B5D"/>
<rect x="44.2694" y="2631.46" width="93.6866" height="8.23619" fill="#484C52"/>
<rect x="30.8856" y="2635.58" width="136.927" height="29.8562" rx="4.11809" fill="#555F69"/>
<rect x="17.5018" y="2635.58" width="150.31" height="29.8562" rx="4.11809" fill="#555F69"/>
<rect x="24.7085" y="2665.44" width="134.868" height="22.6495" rx="4.11809" fill="#555F69"/>
<rect x="24.7085" y="2694.26" width="134.868" height="22.6495" rx="4.11809" fill="#555F69"/>
<rect x="58.6827" y="2638.67" width="25.7381" height="22.6495" fill="#7E7E7E"/>
<rect x="58.6827" y="2665.44" width="25.7381" height="18.5314" fill="#7E7E7E"/>
<rect x="58.6827" y="2696.32" width="25.7381" height="18.5314" fill="#7E7E7E"/>
<rect x="123.152" y="2105.17" width="5.14762" height="23.679" transform="rotate(30.1829 123.152 2105.17)" stroke="#575C5F" stroke-width="1.02952"/>
<rect x="25.7379" y="2469.83" width="136.927" height="15.4428" rx="4.11809" fill="#555F69"/>
<rect x="15.4427" y="2483.21" width="155.458" height="15.4428" rx="4.11809" fill="#555F69"/>
<rect x="42.2103" y="2645.87" width="106.041" height="8.23619" rx="2.05905" fill="#484C52"/>
<rect x="35.0037" y="2687.06" width="116.336" height="8.23619" rx="2.05905" fill="#484C52"/>
<rect x="54.5647" y="2471.89" width="25.7381" height="10.2952" fill="#7E7E7E"/>
<rect x="50.4465" y="2485.27" width="25.7381" height="10.2952" fill="#7E7E7E"/>
<rect x="48.3875" y="2059.05" width="25.7381" height="18.5314" fill="#7E7E7E"/>
<path d="M147.736 2715.88H37.0627L48.3875 2738.02H137.441L147.736 2715.88Z" fill="#555F69"/>
<path d="M59.7123 2716.91H83.3913L88.0242 2735.44H64.3451L59.7123 2716.91Z" fill="#7E7E7E"/>
</svg>
