<svg width="214" height="2222" viewBox="0 0 214 2222" fill="none" xmlns="http://www.w3.org/2000/svg">
<rect x="141.515" y="1638.17" width="30.764" height="47.4116" rx="6.1528" fill="#38373A"/>
<rect x="134.593" y="1674.17" width="30.764" height="37.7537" rx="6.1528" fill="#38373A"/>
<rect y="1804.11" width="36.9168" height="34.2417" rx="6.1528" fill="#A9A9A7"/>
<path d="M57 109.374V1755.76H131.596V109.374C131.596 -36.458 57 -36.458 57 109.374Z" fill="#88DA68"/>
<path d="M7.69092 1663H146.898C148.597 1663 149.974 1664.38 149.974 1666.08V1822.97C149.974 1828.07 145.842 1832.2 140.745 1832.2H32.3021C18.7097 1832.2 7.69092 1821.18 7.69092 1807.59V1663Z" fill="#D9D9D9"/>
<path d="M27.6875 1733.76H169.202V2166.76C169.202 2171.86 165.07 2175.99 159.973 2175.99H36.9167C31.8195 2175.99 27.6875 2171.86 27.6875 2166.76V1733.76Z" fill="#D9D9D9"/>
<rect x="119.21" y="1733.76" width="22.3039" height="442.233" fill="#EAE6E3"/>
<rect x="65.3735" y="1994.48" width="66.1426" height="181.508" fill="#38373A"/>
<rect x="27.6875" y="1931.42" width="156.127" height="45.3769" fill="#38373A"/>
<rect x="27.6875" y="1931.42" width="169.971" height="31.5331" fill="#38373A"/>
<path d="M27.6875 1902.96C27.6875 1901.26 29.0649 1899.88 30.7639 1899.88H187.533C188.572 1899.88 189.541 1900.41 190.109 1901.28L210.702 1932.81C212.038 1934.86 210.57 1937.57 208.126 1937.57H30.7639C29.0649 1937.57 27.6875 1936.19 27.6875 1934.49V1902.96Z" fill="#38373A"/>
<rect x="41.5315" y="2203.68" width="113.827" height="17.6893" fill="#D9D9D9"/>
<rect x="27.6875" y="2175.99" width="143.822" height="3.0764" fill="#38373A"/>
<rect x="27.6875" y="2175.99" width="143.822" height="3.0764" fill="#38373A"/>
<rect x="24.6111" y="1729.14" width="143.822" height="9.22921" fill="#38373A"/>
<rect x="41.5315" y="2203.68" width="113.827" height="3.0764" fill="#38373A"/>
<path d="M16.1511 1994.48H39.9932V2175.99H31.5331C23.0379 2175.99 16.1511 2169.1 16.1511 2160.61V1994.48Z" fill="#38373A"/>
<path d="M156.896 1994.48H180.739V2160.61C180.739 2169.1 173.852 2175.99 165.357 2175.99H156.896V1994.48Z" fill="#38373A"/>
<path d="M41.5313 2203.68L27.6875 2179.07H107.674V2203.68H41.5313Z" fill="#D3D3D3"/>
<path d="M155.758 2203.68L169.202 2179.07H91.523V2203.68H155.758Z" fill="#D3D3D3"/>
<rect x="119.21" y="2179.07" width="16.9202" height="24.6112" fill="#EAE6E3"/>
<rect x="64.6045" y="1663" width="19.9966" height="64.6044" fill="#EAE6E3"/>
</svg>
